<svg width="36" height="36" viewBox="0 0 36 36" fill="none" xmlns="http://www.w3.org/2000/svg">
<path d="M2.65282 24.9028C2.89788 25.521 2.95244 26.1984 2.80949 26.8478L1.03449 32.3312C0.977292 32.6092 0.99208 32.8973 1.07744 33.1681C1.16281 33.4388 1.31592 33.6833 1.52226 33.8783C1.7286 34.0733 1.98133 34.2123 2.25648 34.2822C2.53164 34.3522 2.82009 34.3506 3.09449 34.2778L8.78282 32.6145C9.39568 32.4929 10.0304 32.5461 10.6145 32.7678C14.1735 34.4299 18.2051 34.7815 21.9981 33.7607C25.791 32.7399 29.1016 30.4122 31.3456 27.1884C33.5897 23.9646 34.623 20.0518 34.2633 16.1404C33.9036 12.229 32.174 8.57027 29.3796 5.80982C26.5852 3.04936 22.9057 1.36455 18.9901 1.05265C15.0746 0.740748 11.1747 1.82179 7.97856 4.10505C4.7824 6.38831 2.49537 9.72706 1.52097 13.5322C0.546577 17.3374 0.947434 21.3644 2.65282 24.9028Z" stroke="#2F7823" stroke-width="2" stroke-linecap="round" stroke-linejoin="round"/>
</svg>
